<svg id="Layer_1" data-name="Layer 1" xmlns="http://www.w3.org/2000/svg" viewBox="0 0 1113.38 622.07"><defs><style>.cls-1{fill:red;}.cls-1,.cls-2{stroke:#000;stroke-width:20px;}.cls-1,.cls-2,.cls-3{stroke-miterlimit:10;}.cls-2{fill:none;}.cls-3{font-size:250px;stroke:red;stroke-width:5px;font-family:Algerian;}</style></defs><title>MY_LOGO</title><path class="cls-1" d="M667,471,564,622l-80.2-58.4-34-95.14L347,487l-29,73,92-47L295,617l-70-46,24-79-98-14,117-53,58-182-89,42L346,173l70-10,92-41-61.19,94.85L513.28,369,656,335l-71,71,125,25L543.48,459.59l32,80.12ZM423.65,390.63,389.53,264,354.69,406.14Z" transform="translate(-115.62 -65)"/><rect class="cls-2" x="49.38" y="10" width="501" height="601"/><text class="cls-3" transform="translate(569.88 554.75)">RMA</text></svg>